<?xml version="1.0" encoding="UTF-8"?>
<!DOCTYPE svg PUBLIC "-//W3C//DTD SVG 1.1//EN" "http://www.w3.org/Graphics/SVG/1.1/DTD/svg11.dtd">
<svg xmlns="http://www.w3.org/2000/svg" version="1.1" width="2000px" height="2000px" style="shape-rendering:geometricPrecision; text-rendering:geometricPrecision; image-rendering:optimizeQuality; fill-rule:evenodd; clip-rule:evenodd" xmlns:xlink="http://www.w3.org/1999/xlink">
<g><path style="opacity:0.995" fill="#000000" d="M 900.5,-0.5 C 966.5,-0.5 1032.5,-0.5 1098.5,-0.5C 1366.36,30.3303 1588.19,146.997 1764,349.5C 1908.45,523.258 1986.95,723.591 1999.5,950.5C 1999.5,980.833 1999.5,1011.17 1999.5,1041.5C 1983.44,1308.06 1880.44,1534.22 1690.5,1720C 1496.56,1900.56 1266.23,1992.72 999.5,1996.5C 714.729,1991.98 473.229,1888.64 275,1686.5C 105.834,1505.35 14.0007,1290.35 -0.5,1041.5C -0.5,1011.17 -0.5,980.833 -0.5,950.5C 16.7467,668.199 129.747,432.699 338.5,244C 499.625,103.976 686.959,22.476 900.5,-0.5 Z"/></g>
<g><path style="opacity:1" fill="#008e42" d="M 983.5,88.5 C 1215.93,87.6755 1419.93,162.175 1595.5,312C 1753.36,451.812 1852.2,625.979 1892,834.5C 1930.55,1063.23 1889.88,1276.57 1770,1474.5C 1635.9,1683.88 1447.74,1818.72 1205.5,1879C 982.632,1928.21 770.299,1899.87 568.5,1794C 357.504,1676.31 213.338,1502.81 136,1273.5C 72.2069,1067.2 78.8735,863.201 156,661.5C 237.301,463.205 370.801,310.705 556.5,204C 689.442,130.682 831.776,92.1816 983.5,88.5 Z"/></g>
<g><path style="opacity:1" fill="#fefefe" d="M 846.5,271.5 C 930.036,268.757 1011.04,281.59 1089.5,310C 1139.76,327.529 1187.76,349.862 1233.5,377C 1168.23,373.985 1106.9,387.985 1049.5,419C 1023.97,433.26 999.635,449.26 976.5,467C 943.916,492.913 911.916,519.58 880.5,547C 858.385,564.891 835.385,581.557 811.5,597C 761.511,624.401 708.178,641.401 651.5,648C 609.164,653.962 566.83,653.962 524.5,648C 503.633,645.044 483.8,638.877 465,629.5C 379.019,754.293 340.353,892.627 349,1044.5C 351.552,1084.03 357.552,1123.03 367,1161.5C 373.658,1186.64 381.158,1211.47 389.5,1236C 388.108,1248.71 381.108,1253.71 368.5,1251C 364.612,1248.78 361.779,1245.61 360,1241.5C 319.278,1129.58 307.612,1014.58 325,896.5C 342.595,786.693 384.262,687.359 450,598.5C 478.379,525.681 518.379,460.348 570,402.5C 644.926,322.959 737.093,279.292 846.5,271.5 Z"/></g>
<g><path style="opacity:1" fill="#119045" d="M 481.5,582.5 C 551.568,487.766 641.902,419.599 752.5,378C 865.254,335.126 981.254,323.459 1100.5,343C 924.342,321.541 763.675,361.207 618.5,462C 568.759,497.222 523.093,537.389 481.5,582.5 Z"/></g>
<g><path style="opacity:1" fill="#6cad7d" d="M 1101.5,344.5 C 1102.27,343.853 1103.27,343.52 1104.5,343.5C 1111.22,344.345 1117.89,345.511 1124.5,347C 1116.81,346.667 1109.15,345.833 1101.5,344.5 Z"/></g>
<g><path style="opacity:1" fill="#79b389" d="M 481.5,582.5 C 480.969,584.544 479.802,586.211 478,587.5C 478.077,585.228 479.243,583.562 481.5,582.5 Z"/></g>
<g><path style="opacity:1" fill="#fefefe" d="M 526.5,817.5 C 553.5,817.5 580.5,817.5 607.5,817.5C 607.333,858.501 607.5,899.501 608,940.5C 608.717,939.956 609.217,939.289 609.5,938.5C 623.019,919.386 641.352,907.219 664.5,902C 733.664,892.828 779.164,921.328 801,987.5C 811.574,1027.75 808.907,1067.09 793,1105.5C 768.334,1154.59 728.501,1176.76 673.5,1172C 646.211,1168.45 624.711,1155.62 609,1133.5C 608.5,1145.5 608.333,1157.5 608.5,1169.5C 581.167,1169.5 553.833,1169.5 526.5,1169.5C 526.5,1052.17 526.5,934.833 526.5,817.5 Z"/></g>
<g><path style="opacity:1" fill="#edf3ee" d="M 526.5,817.5 C 553.662,816.502 580.995,816.169 608.5,816.5C 608.168,857.337 608.501,898.003 609.5,938.5C 609.217,939.289 608.717,939.956 608,940.5C 607.5,899.501 607.333,858.501 607.5,817.5C 580.5,817.5 553.5,817.5 526.5,817.5 Z"/></g>
<g><path style="opacity:1" fill="#d1e2d5" d="M 1273.5,817.5 C 1246.5,817.5 1219.5,817.5 1192.5,817.5C 1192.5,934.5 1192.5,1051.5 1192.5,1168.5C 1219.5,1168.5 1246.5,1168.5 1273.5,1168.5C 1246.34,1169.5 1219.01,1169.83 1191.5,1169.5C 1191.5,1051.83 1191.5,934.167 1191.5,816.5C 1219.01,816.169 1246.34,816.502 1273.5,817.5 Z"/></g>
<g><path style="opacity:1" fill="#fefefe" d="M 1273.5,817.5 C 1273.33,858.168 1273.5,898.835 1274,939.5C 1290.34,916.231 1312.84,903.064 1341.5,900C 1399.48,896.232 1439.65,921.066 1462,974.5C 1476.55,1017.09 1475.89,1059.42 1460,1101.5C 1436.3,1152.94 1396.14,1176.44 1339.5,1172C 1311.91,1168.69 1290.07,1155.86 1274,1133.5C 1273.5,1145.16 1273.33,1156.83 1273.5,1168.5C 1246.5,1168.5 1219.5,1168.5 1192.5,1168.5C 1192.5,1051.5 1192.5,934.5 1192.5,817.5C 1219.5,817.5 1246.5,817.5 1273.5,817.5 Z"/></g>
<g><path style="opacity:1" fill="#fdfdfd" d="M 1048.5,904.5 C 1037.5,904.5 1026.5,904.5 1015.5,904.5C 1015.78,902.585 1015.45,900.919 1014.5,899.5C 1010.53,873.059 995.027,859.725 968,859.5C 933.8,861.021 918.134,878.687 921,912.5C 924.02,925.207 929.687,936.541 938,946.5C 942,951.167 946,955.833 950,960.5C 987.319,998.986 1025.15,1036.99 1063.5,1074.5C 1067.48,1069.89 1070.98,1064.89 1074,1059.5C 1086.37,1038.58 1098.87,1017.75 1111.5,997C 1123.51,996.167 1135.51,996.334 1147.5,997.5C 1128.3,1032.08 1107.97,1065.91 1086.5,1099C 1109.37,1121.7 1132.03,1144.53 1154.5,1167.5C 1140.34,1168.5 1126.01,1168.83 1111.5,1168.5C 1096.17,1154.01 1081.34,1139.01 1067,1123.5C 1024.98,1168.47 973.81,1183.97 913.5,1170C 865.965,1155.59 841.298,1123.59 839.5,1074C 840.145,1032.7 858.479,1002.04 894.5,982C 901.864,978.318 909.198,974.651 916.5,971C 903.286,957.079 893.786,940.912 888,922.5C 879.906,884.392 893.072,856.558 927.5,839C 954.059,828.228 980.726,827.895 1007.5,838C 1035.9,851.33 1049.56,873.497 1048.5,904.5 Z"/></g>
<g><path style="opacity:1" fill="#d1e2d5" d="M 1014.5,899.5 C 1015.45,900.919 1015.78,902.585 1015.5,904.5C 1026.5,904.5 1037.5,904.5 1048.5,904.5C 1037.35,905.495 1026.01,905.828 1014.5,905.5C 1014.5,903.5 1014.5,901.5 1014.5,899.5 Z"/></g>
<g><path style="opacity:1" fill="#fcfdfc" d="M 1650.5,1028.5 C 1651.66,1020.01 1651.82,1011.34 1651,1002.5C 1650.49,1003.53 1649.99,1004.53 1649.5,1005.5C 1634.35,1039.81 1619.18,1074.14 1604,1108.5C 1597.57,1117.2 1589.73,1118.7 1580.5,1113C 1575.31,1107.31 1574.14,1100.81 1577,1093.5C 1601.27,1039.28 1625.27,984.951 1649,930.5C 1653.48,923.114 1659.98,920.614 1668.5,923C 1671.54,924.031 1674.04,925.865 1676,928.5C 1704.25,978.672 1732.25,1029.01 1760,1079.5C 1761.14,1095.34 1753.98,1101.51 1738.5,1098C 1736.91,1096.95 1735.41,1095.79 1734,1094.5C 1716.41,1063.66 1699.08,1032.66 1682,1001.5C 1678.21,1204.73 1602.04,1374.89 1453.5,1512C 1307.16,1638.78 1136.82,1695.78 942.5,1683C 875.38,1677.72 810.713,1662.39 748.5,1637C 740.272,1628.37 740.605,1620.03 749.5,1612C 751.9,1610.3 754.567,1609.47 757.5,1609.5C 912.095,1667.59 1067.43,1669.42 1223.5,1615C 1395.07,1549.1 1519.23,1432.6 1596,1265.5C 1629.01,1189.95 1647.18,1110.95 1650.5,1028.5 Z"/></g>
<g><path style="opacity:1" fill="#018f42" d="M 653.5,971.5 C 689.114,968.043 711.947,983.376 722,1017.5C 726.838,1041.37 722.172,1063.03 708,1082.5C 689.58,1100.81 668.08,1105.65 643.5,1097C 623.475,1086.96 611.975,1070.8 609,1048.5C 605.943,1027.73 610.276,1008.73 622,991.5C 630.551,981.648 641.051,974.981 653.5,971.5 Z"/></g>
<g><path style="opacity:1" fill="#018f42" d="M 1320.5,971.5 C 1358.08,968.582 1380.58,985.582 1388,1022.5C 1392.42,1048.58 1385.25,1070.75 1366.5,1089C 1342.87,1105.66 1319.21,1105.66 1295.5,1089C 1282.62,1077.4 1275.45,1062.9 1274,1045.5C 1270.59,1019.39 1278.75,997.885 1298.5,981C 1305.34,976.409 1312.67,973.242 1320.5,971.5 Z"/></g>
<g><path style="opacity:1" fill="#018f42" d="M 937.5,993.5 C 946.078,1000.57 954.245,1008.24 962,1016.5C 989.348,1044.35 1016.51,1072.35 1043.5,1100.5C 1009.62,1141.06 967.286,1153.56 916.5,1138C 880.804,1119.77 867.304,1090.93 876,1051.5C 882.599,1030.23 895.765,1014.4 915.5,1004C 922.803,1000.18 930.136,996.68 937.5,993.5 Z"/></g>
<g><path style="opacity:1" fill="#82b691" d="M 1650.5,1028.5 C 1650.83,1020.65 1650.49,1012.98 1649.5,1005.5C 1649.99,1004.53 1650.49,1003.53 1651,1002.5C 1651.82,1011.34 1651.66,1020.01 1650.5,1028.5 Z"/></g>
<g><path style="opacity:1" fill="#a0c5aa" d="M 1154.5,1167.5 C 1155.04,1167.56 1155.38,1167.89 1155.5,1168.5C 1140.67,1169.83 1126.01,1169.83 1111.5,1168.5C 1126.01,1168.83 1140.34,1168.5 1154.5,1167.5 Z"/></g>
</svg>
